<svg xmlns="http://www.w3.org/2000/svg" viewBox="0 0 200 200">
<defs><radialGradient id="n" cx="50%" cy="35%" r="75%"><stop offset="0" stop-color="#fff1c1"/><stop offset="1" stop-color="#ffc98a"/></radialGradient></defs>
<rect width="200" height="200" fill="url(#n)"/>
<circle cx="24" cy="30" r="3" fill="#fff" opacity=".7"/><circle cx="176" cy="46" r="3" fill="#fff" opacity=".7"/><circle cx="30" cy="150" r="3" fill="#fff" opacity=".7"/><circle cx="172" cy="160" r="3" fill="#fff" opacity=".7"/>
<circle cx="100" cy="38" r="26" fill="#6b3b24"/><circle cx="92" cy="32" r="8" fill="#8f5534" opacity=".6"/>
<path d="M58 200 C60 178 78 168 100 168 C122 168 140 178 142 200 Z" fill="#ffb347"/>
<rect x="92" y="152" width="16" height="20" rx="6" fill="#ffe0cf"/>
<ellipse cx="100" cy="112" rx="56" ry="52" fill="#ffe7d8"/>
<ellipse cx="44" cy="118" rx="8" ry="11" fill="#ffd9c6"/><ellipse cx="156" cy="118" rx="8" ry="11" fill="#ffd9c6"/>
<path d="M42 112 C38 62 72 46 100 46 C128 46 162 62 158 112 C150 92 138 80 122 74 C118 86 104 92 84 90 C90 84 92 80 92 76 C74 84 56 96 42 112 Z" fill="#6b3b24"/>
<path d="M70 62 C84 52 110 50 128 60" stroke="#8f5534" stroke-width="5" fill="none" stroke-linecap="round" opacity=".7"/>
<g transform="translate(78 122)"><ellipse rx="10" ry="12.5" fill="#5a3218"/><ellipse cx="0" cy="3" rx="7" ry="8" fill="#5a3218" opacity=".6"/><circle cx="3.5" cy="-5" r="4" fill="#fff"/><circle cx="-3.5" cy="4" r="2" fill="#fff" opacity=".85"/></g><g transform="translate(122 122)"><ellipse rx="10" ry="12.5" fill="#5a3218"/><ellipse cx="0" cy="3" rx="7" ry="8" fill="#5a3218" opacity=".6"/><circle cx="3.5" cy="-5" r="4" fill="#fff"/><circle cx="-3.5" cy="4" r="2" fill="#fff" opacity=".85"/></g>
<ellipse cx="64" cy="140" rx="10" ry="6" fill="#ff9fb5" opacity=".6"/><ellipse cx="136" cy="140" rx="10" ry="6" fill="#ff9fb5" opacity=".6"/>
<path d="M92 142 Q100 151 108 142" stroke="#c0475f" stroke-width="3" fill="none" stroke-linecap="round"/>
<g transform="translate(140 66) rotate(-25)"><rect x="-14" y="-5" width="28" height="10" rx="5" fill="#ffd27a"/><circle cx="-6" cy="0" r="2.5" fill="#fff"/><circle cx="4" cy="0" r="2.5" fill="#fff"/></g>
</svg>